# xmcd
#
# Track frame offsets: 
#        150
#        22430
#        45814
#        67455
#        89947
#        111952
#        128795
#        141270
#        160990
#        180097
#        196891
#        216374
#
# Disc length: 2995 seconds
#
# Revision: 0
# Processed by: cddbd v1.5.2PL0 Copyright (c) Steve Scherf et al.
# Submitted via: ExactAudioCopy v1.3
#
DISCID=b80bb10c
DTITLE=Jim Roberts and the Resonants - A Month of Sundays
DYEAR=2019
DGENRE=Blues
TTITLE0=Skeeters
TTITLE1=What Her Evil Do
TTITLE2=Belle of the Ball
TTITLE3=A Month of Sundays
TTITLE4=Made a Promise
TTITLE5=Long Haired Mississippi Hippie
TTITLE6=Miss Her Love
TTITLE7=Pay the Price
TTITLE8=Moonshine Maiden
TTITLE9=Miss Motor City 1963
TTITLE10=I’m Walkin’ On
TTITLE11=I’m Walkin’ On
EXTD=
EXTT0=
EXTT1=
EXTT2=
EXTT3=
EXTT4=
EXTT5=
EXTT6=
EXTT7=
EXTT8=
EXTT9=
EXTT10=
EXTT11=
PLAYORDER=
